<?xml version="1.0" encoding="UTF-8" standalone="no"?>
<svg
   viewBox="0 0 13 13"
   version="1.1"
   x="0px"
   y="0px"
   id="svg2"
   sodipodi:docname="logo.svg"
   width="13"
   height="13"
   inkscape:version="1.3 (0e150ed, 2023-07-21)"
   inkscape:export-filename="logo.png"
   inkscape:export-xdpi="1846.1538"
   inkscape:export-ydpi="1846.1538"
   xmlns:inkscape="http://www.inkscape.org/namespaces/inkscape"
   xmlns:sodipodi="http://sodipodi.sourceforge.net/DTD/sodipodi-0.dtd"
   xmlns="http://www.w3.org/2000/svg"
   xmlns:svg="http://www.w3.org/2000/svg">
  <defs
     id="defs2">
    <inkscape:path-effect
       effect="fillet_chamfer"
       id="path-effect24"
       is_visible="true"
       lpeversion="1"
       nodesatellites_param="F,0,0,1,0,1,0,1 @ F,0,0,1,0,1,0,1 @ F,0,0,1,0,1,0,1 @ F,0,0,1,0,1,0,1"
       radius="1"
       unit="px"
       method="auto"
       mode="F"
       chamfer_steps="1"
       flexible="false"
       use_knot_distance="true"
       apply_no_radius="true"
       apply_with_radius="true"
       only_selected="false"
       hide_knots="false" />
  </defs>
  <sodipodi:namedview
     id="namedview2"
     pagecolor="#ffffff"
     bordercolor="#000000"
     borderopacity="0.25"
     inkscape:showpageshadow="2"
     inkscape:pageopacity="0.0"
     inkscape:pagecheckerboard="0"
     inkscape:deskcolor="#d1d1d1"
     showgrid="false"
     inkscape:zoom="73.952756"
     inkscape:cx="6.3486478"
     inkscape:cy="6.8827726"
     inkscape:window-width="2560"
     inkscape:window-height="1387"
     inkscape:window-x="2560"
     inkscape:window-y="25"
     inkscape:window-maximized="1"
     inkscape:current-layer="svg2" />
  <path
     style="fill:#ffffff"
     id="rect24"
     width="12.41333"
     height="12.467421"
     x="0.33805364"
     y="0.094655037"
     inkscape:path-effect="#path-effect24"
     sodipodi:type="rect"
     d="M 1.3380536,0.09465504 H 11.751384 a 1,1 45 0 1 1,0.99999996 v 10.467421 a 1,1 135 0 1 -1,1 H 1.3380536 a 1,1 45 0 1 -0.99999996,-1 l 0,-10.467421 A 1,1 135 0 1 1.3380536,0.09465504 Z"
     transform="translate(0,0.12169932)" />
  <g
     transform="translate(0.10817717,-284.69212)"
     id="g1">
    <path
       d="m 7.2407,286.88275 a 10.031106,10.031106 0 0 0 -5.6616,1.5911 v 0 a 1.4739318,1.4739318 0 0 0 -0.6754,1.17565 l -0.1803,4.13205 h -0.014 a 0.18269438,0.18269438 0 0 0 -0.015,0.36484 77.053727,77.053727 0 0 0 11.2949,0.1235 0.1915381,0.1915381 0 0 0 -0.01,-0.38293 l -0.085,-2.72592 a 0.58957275,0.58957275 0 0 0 -0.4325,-0.54983 l -2.1508,-0.59325 -0.6041,0.0196 -0.3834,-0.95705 -0.033,-0.82114 -0.2749,-0.0956 z m -0.1105,1.69601 a 0.53882395,0.53882395 0 0 1 0.5591,0.53329 v 0.87231 H 6.6118 v -0.87231 a 0.53882395,0.53882395 0 0 1 0.5184,-0.53329 z m -1.5607,0.19897 a 0.44217955,0.44217955 0 0 1 0.3664,0.21341 0.65838948,0.65838948 0 0 1 0.082,0.21344 v 0.82216 l -0.9359,0.0693 v -0.85627 a 0.14739316,0.14739316 0 0 1 0,-0.0341 0.68296247,0.68296247 0 0 1 0.1158,-0.2491 v 0 a 0.44217955,0.44217955 0 0 1 0.3679,-0.17878 z m -1.3596,0.16018 a 0.29478639,0.29478639 0 0 1 0.1664,0.0501 0.51622054,0.51622054 0 0 1 0.2264,0.38447 v 0.77671 l -0.7442,0.12504 v -0.88109 a 0.49555489,0.49555489 0 0 1 0.1452,-0.36896 0.29478639,0.29478639 0 0 1 0.2062,-0.0863 z m -1.1524,0.33848 a 0.17687183,0.17687183 0 0 1 0.1422,0.0594 0.6991047,0.6991047 0 0 1 0.1669,0.33539 0.14739316,0.14739316 0 0 1 0,0.0279 v 0.70228 l -0.5912,0.12042 v -0.79791 a 0.50393226,0.50393226 0 0 1 0.1731,-0.4041 v 0 a 0.17687183,0.17687183 0 0 1 0.1059,-0.0429 z m -0.972,0.4341 a 0.08843592,0.08843592 0 0 1 0.071,0.0305 0.58268594,0.58268594 0 0 1 0.1354,0.30025 v 0.6537 l -0.4114,0.12298 v -0.75758 a 0.58577921,0.58577921 0 0 1 0.1427,-0.32038 0.08843592,0.08843592 0 0 1 0.062,-0.0294 z m -0.7576,0.57774 a 0.08843592,0.08843592 0 0 1 0.07,0.031 0.32395398,0.32395398 0 0 1 0.076,0.22222 v 0.45577 l -0.3116,0.1261 v -0.49093 a 0.52158931,0.52158931 0 0 1 0.096,-0.30695 v 0 a 0.08843592,0.08843592 0 0 1 0.069,-0.0372 z m 5.7935,0.28782 a 0.54325572,0.54325572 0 0 1 0.5617,0.54054 v 1.03611 H 6.5969 v -1.03611 a 0.54325572,0.54325572 0 0 1 0.5245,-0.54054 z m 1.4986,0.0388 a 0.45430365,0.45430365 0 0 1 0.4692,0.45217 v 1.08572 H 8.1807 v -1.08572 A 0.45430365,0.45430365 0 0 1 8.62,290.61485 Z m -3.1073,0.0475 a 0.29478639,0.29478639 0 0 1 0.1421,0.0331 0.64957348,0.64957348 0 0 1 0.3504,0.48215 v 0.98184 l -0.9271,0.0346 v -1.03507 a 0.61155489,0.61155489 0 0 1 0.2868,-0.45271 0.29478639,0.29478639 0 0 1 0.1478,-0.0439 z m -1.2981,0.20879 a 0.29478639,0.29478639 0 0 1 0.1881,0.0739 0.57378245,0.57378245 0 0 1 0.1876,0.34624 v 0.93842 l -0.755,0.03 v -0.95136 a 0.5984514,0.5984514 0 0 1 0.156,-0.34261 0.29478639,0.29478639 0 0 1 0.2233,-0.0946 z m 5.9376,0.003 a 0.29478639,0.29478639 0 0 1 0.1902,0.0682 0.59746609,0.59746609 0 0 1 0.2103,0.38344 v 0.63976 l -0.6904,-0.0987 a 1.3574677,1.3574677 0 0 1 -0.075,-0.61545 0.62418682,0.62418682 0 0 1 0.1514,-0.28371 0.29478639,0.29478639 0 0 1 0.2134,-0.0935 z m 1.1488,0.27027 a 0.17687183,0.17687183 0 0 1 0.017,0 0.17687183,0.17687183 0 0 1 0.124,0.0594 0.69242193,0.69242193 0 0 1 0.169,0.3643 v 0.82167 l -0.5839,-0.078 v -0.75292 a 0.53025576,0.53025576 0 0 1 0.1597,-0.36433 0.17687183,0.17687183 0 0 1 0.1137,-0.0501 z m -8.2667,0.0325 a 0.23582908,0.23582908 0 0 1 0.2,0.10594 0.59467929,0.59467929 0 0 1 0.098,0.29612 v 0.73948 l -0.5731,0.048 v -0.80097 a 0.55895335,0.55895335 0 0 1 0.073,-0.26977 0.23582908,0.23582908 0 0 1 0.2016,-0.11885 z m -0.9586,0.22222 a 0.08843592,0.08843592 0 0 1 0.081,0.0444 0.88116912,0.88116912 0 0 1 0.1158,0.40619 v 0.59169 l -0.415,0.0372 v -0.65214 a 0.58313991,0.58313991 0 0 1 0.1581,-0.39947 0.08843592,0.08843592 0 0 1 0.06,-0.0279 z m -0.7648,0.26146 a 0.05895731,0.05895731 0 0 1 0.046,0.0222 0.50001937,0.50001937 0 0 1 0.1106,0.28474 v 0.601 l -0.3173,0.0553 v -0.58602 a 0.55764456,0.55764456 0 0 1 0.1142,-0.35346 v 0 a 0.05895731,0.05895731 0 0 1 0.046,-0.0233 z m 5.8456,1.0573 A 0.54772718,0.54772718 0 0 1 7.6826,293.26 v 0.7834 H 6.587 V 293.26 a 0.54772718,0.54772718 0 0 1 0.5695,-0.54211 z m 1.495,0.0506 a 0.4623,0.4623 0 0 1 0.4491,0.46198 v 0.80204 h -0.925 v -0.80204 a 0.4623,0.4623 0 0 1 0.4759,-0.46198 z m -3.1279,0.0119 a 0.44914999,0.44914999 0 0 1 0.4624,0.44905 v 0.80047 H 5.0874 v -0.80047 a 0.44914999,0.44914999 0 0 1 0.4362,-0.44905 z m 4.4674,0.0697 a 0.29478639,0.29478639 0 0 1 0.2315,0.11059 0.68677112,0.68677112 0 0 1 0.1473,0.35658 v 0.67384 H 9.6339 v -0.64595 a 0.63313283,0.63313283 0 0 1 0.1194,-0.37259 0.29478639,0.29478639 0 0 1 0.2377,-0.12247 z m -5.7945,0.0418 a 0.36395001,0.36395001 0 0 1 0.3746,0.3638 v 0.77156 H 3.843 v -0.77156 a 0.36395001,0.36395001 0 0 1 0.3535,-0.3638 z m 7.1071,0.0285 a 0.17687183,0.17687183 0 0 1 0.1405,0.0625 0.64236996,0.64236996 0 0 1 0.1494,0.36017 v 0.61135 h -0.4279 l -0.1344,-0.22532 v -0.4382 a 0.53669974,0.53669974 0 0 1 0.1556,-0.31938 v 0 a 0.17687183,0.17687183 0 0 1 0.1194,-0.0511 z m -8.2621,0.0289 a 0.14739316,0.14739316 0 0 1 0.1054,0.0455 0.70074686,0.70074686 0 0 1 0.1917,0.40825 v 0.59169 l -0.5704,-0.0367 v -0.56378 a 0.64441723,0.64441723 0 0 1 0.1622,-0.39534 0.14739316,0.14739316 0 0 1 0.1111,-0.0496 z m -0.9906,0.1256 a 0.11791453,0.11791453 0 0 1 0.1018,0.0491 0.6238599,0.6238599 0 0 1 0.1163,0.35399 v 0.45992 l -0.3959,-0.0393 v -0.49556 a 0.56161722,0.56161722 0 0 1 0.084,-0.27234 v 0 a 0.11791453,0.11791453 0 0 1 0.094,-0.0558 z m -0.7364,0.0873 a 0.05895731,0.05895731 0 0 1 0.047,0.0196 0.42819708,0.42819708 0 0 1 0.108,0.28734 v 0.41288 l -0.3105,-0.0356 v -0.3602 a 0.64755153,0.64755153 0 0 1 0.1095,-0.29816 0.05895731,0.05895731 0 0 1 0.046,-0.0254 z"
       fill="#000000"
       stroke="none"
       id="path1" />
  </g>
  <path
     style="fill:#ffffff;stroke-width:0.0135221"
     d="m 1.9945166,5.7332576 c 0,-0.4331016 0.0091,-0.4887128 0.1019864,-0.6235868 0.075094,-0.1090336 0.1218722,-0.1123256 0.1927946,-0.013568 0.092872,0.1293214 0.098208,0.1606164 0.094203,0.5524282 l -0.0036,0.3524808 -0.06085,0.017848 c -0.03347,0.00982 -0.1201806,0.03571 -0.1926931,0.057542 l -0.1318409,0.039695 z"
     id="path2" />
  <path
     style="fill:#ffffff;stroke-width:0.0135221"
     d="m 1.2802799,6.1164419 0.00432,-0.3026994 0.047327,-0.093638 c 0.02603,-0.051501 0.057655,-0.099771 0.070278,-0.1072677 0.039775,-0.023621 0.095325,0.00721 0.13245,0.073515 0.032647,0.058306 0.034067,0.070882 0.03813,0.3377648 l 0.00422,0.277204 -0.1380549,0.054089 c -0.07593,0.029749 -0.1436671,0.056258 -0.1505264,0.05891 -0.00746,0.00289 -0.010736,-0.1167097 -0.00815,-0.2978774 z"
     id="path3" />
  <path
     style="fill:#ffffff;stroke-width:0.0135221"
     d="m 1.2643207,7.5955263 c 0,-0.3505274 0.010838,-0.4273331 0.075984,-0.5384975 0.051567,-0.087993 0.078357,-0.097705 0.1267141,-0.045939 0.021584,0.023106 0.052948,0.076707 0.069697,0.1191126 0.028017,0.070933 0.030874,0.1036249 0.035708,0.4086003 l 0.00525,0.3314985 -0.139776,0.023552 c -0.076877,0.012954 -0.1473822,0.02351 -0.1566787,0.023458 -0.013046,-7.26e-5 -0.016903,-0.073497 -0.016903,-0.3217845 z"
     id="path4" />
  <path
     style="fill:#ffffff;stroke-width:0.0135221"
     d="M 1.480675,9.1716899 C 1.4323334,9.1661345 1.3664143,9.1580226 1.3341882,9.1536636 l -0.058593,-0.00793 0.0045,-0.226271 0.0045,-0.2262711 0.050737,-0.102589 c 0.027905,-0.056424 0.060842,-0.1064666 0.073193,-0.111206 0.031914,-0.012246 0.090913,0.048787 0.128002,0.1324156 0.026682,0.060163 0.031476,0.097302 0.036013,0.2789948 0.00288,0.1152763 0.00316,0.2279052 6.268e-4,0.2502864 l -0.00461,0.040693 z"
     id="path5" />
  <path
     style="fill:#ffffff;stroke-width:0.0135221"
     d="M 2.1973488,9.2212525 C 2.1118212,9.2115444 2.0307841,9.2032007 2.0172663,9.202711 1.9941262,9.2018728 1.9929397,9.183825 1.9969831,8.8941919 c 0.00405,-0.2904623 0.0061,-0.3116181 0.036598,-0.3791165 0.055195,-0.1221465 0.1262507,-0.1544059 0.2011962,-0.091343 0.046718,0.03931 0.105985,0.1648402 0.1248884,0.2645173 0.015594,0.082224 0.018443,0.5549917 0.00333,0.5523961 -0.00558,-9.579e-4 -0.080119,-0.00968 -0.1656469,-0.019393 z"
     id="path6" />
  <path
     style="fill:#ffffff;stroke-width:0.0135221"
     d="m 3.1303769,9.2756291 c -0.1301506,-0.00931 -0.2381588,-0.017553 -0.2400181,-0.018322 -0.00186,-7.689e-4 -0.00338,-0.1407112 -0.00338,-0.3109829 0,-0.3445896 0.012621,-0.4176334 0.094441,-0.5465875 0.063182,-0.099579 0.1031692,-0.1309442 0.1669404,-0.1309442 0.047573,0 0.062716,0.00842 0.1176604,0.065424 0.034683,0.035983 0.079562,0.099151 0.09973,0.1403729 0.066693,0.1363157 0.075303,0.1957493 0.075476,0.5210183 l 1.605e-4,0.3008677 -0.037186,-0.00196 c -0.020452,-0.00108 -0.1436728,-0.00958 -0.2738235,-0.018885 z"
     id="path7" />
  <path
     style="fill:#ffffff;stroke-width:0.0135221"
     d="m 2.8734561,7.2368027 c 0,-0.3466867 0.00389,-0.4368138 0.021439,-0.4969389 0.051411,-0.176125 0.1357134,-0.2507308 0.2706717,-0.239539 0.097163,0.00806 0.1545081,0.054181 0.2110197,0.1697276 l 0.044517,0.091021 0.00408,0.4293281 c 0.00225,0.2361305 0.00225,0.4294033 0,0.4294952 -0.00225,9.18e-5 -0.1044852,0.00914 -0.2271987,0.020116 -0.1227134,0.010972 -0.245934,0.020024 -0.2738234,0.020116 l -0.050708,1.67e-4 z"
     id="path8" />
  <path
     style="fill:#ffffff;stroke-width:0.0135221"
     d="m 2.8869783,5.4038375 c 0,-0.5234705 0.011661,-0.5873496 0.1314104,-0.7198984 0.1461825,-0.1618066 0.2805668,-0.109231 0.4061742,0.158909 l 0.037107,0.079213 V 5.3132761 5.704491 L 3.2182713,5.754198 C 3.084402,5.781537 2.9550965,5.808299 2.9309257,5.813669 l -0.043947,0.00976 z"
     id="path9" />
  <path
     style="fill:#ffffff;stroke-width:0.0135221"
     d="m 3.9715225,5.0821446 c 0.00449,-0.4878096 0.00525,-0.4998103 0.036789,-0.5788507 0.062913,-0.1576567 0.209868,-0.2642131 0.3402642,-0.2467232 0.1148042,0.015398 0.2416402,0.119812 0.3068624,0.2526144 l 0.036747,0.074823 0.00406,0.4334724 0.00406,0.4334724 -0.3421151,0.057542 c -0.1881633,0.031648 -0.3531705,0.060747 -0.3666827,0.064665 -0.023484,0.00681 -0.024366,-0.014838 -0.019987,-0.4910142 z"
     id="path10" />
  <path
     style="fill:#ffffff;stroke-width:0.0135221"
     d="m 3.9580075,7.0432754 0.00398,-0.5256008 0.036012,-0.076781 C 4.0428878,6.3451916 4.1343098,6.2441485 4.2053876,6.2116821 4.361794,6.14024 4.5395266,6.2343729 4.641935,6.4428915 l 0.036728,0.074783 0.00384,0.5086667 0.00384,0.5086667 -0.3216109,0.00931 c -0.1768861,0.00512 -0.3416575,0.012739 -0.3661588,0.016934 l -0.044548,0.00763 z"
     id="path11" />
  <path
     style="fill:#ffffff;stroke-width:0.0135221"
     d="m 3.9552279,8.927071 c 0,-0.4529789 0.00653,-0.4941065 0.094317,-0.5938351 0.097011,-0.1102099 0.2490029,-0.1520756 0.3845817,-0.1059316 0.06583,0.022405 0.1629582,0.1104498 0.2017291,0.182863 0.027987,0.052271 0.029466,0.073735 0.033368,0.4840246 L 4.6733071,9.32352 H 4.3142675 3.9552279 Z"
     id="path12" />
  <path
     style="fill:#ffffff;stroke-width:0.0135221"
     d="m 5.2018184,8.8870986 0.00421,-0.4499435 0.044225,-0.089785 C 5.2745748,8.2979877 5.3168919,8.2379027 5.3442892,8.2138476 5.5246698,8.0554713 5.7891407,8.0608614 5.9545647,8.2262853 6.0785161,8.3502367 6.091727,8.4182125 6.091727,8.9320433 V 9.3370422 H 5.6446687 5.1976103 Z"
     id="path13" />
  <path
     style="fill:#ffffff;stroke-width:0.0135221"
     d="M 5.202083,6.9346189 5.206023,6.3682931 5.251354,6.2762471 C 5.303751,6.169854 5.4190484,6.0470603 5.5018591,6.0094552 c 0.081579,-0.037046 0.1834259,-0.033606 0.2675782,0.00904 0.1365174,0.069179 0.2556427,0.2095597 0.3087051,0.3637882 0.025202,0.073251 0.027103,0.1136325 0.027103,0.5756525 v 0.4968749 l -0.077752,0.00766 c -0.042764,0.00421 -0.1994517,0.011009 -0.3481953,0.015102 -0.1487436,0.00409 -0.3178547,0.011026 -0.3758024,0.015408 l -0.1053596,0.00797 z"
     id="path14" />
  <path
     style="fill:#ffffff;stroke-width:0.0135221"
     d="m 5.2021432,4.9332737 0.00388,-0.4709654 0.037798,-0.076971 c 0.05303,-0.1079805 0.145001,-0.205271 0.2362593,-0.2499195 0.062894,-0.030771 0.095077,-0.037588 0.1787765,-0.037867 0.088353,-2.946e-4 0.1141567,0.00561 0.1919439,0.043884 0.1060223,0.052174 0.1619774,0.1114681 0.219255,0.2323387 l 0.041954,0.088534 0.0039,0.4334264 0.0039,0.4334264 -0.436611,0.030845 c -0.2401361,0.016965 -0.447486,0.033857 -0.4607775,0.037539 -0.022926,0.00635 -0.023967,-0.017484 -0.020283,-0.4642716 z"
     id="path15" />
  <path
     style="fill:#ffffff;stroke-width:0.0135221"
     d="M 6.729877,4.7894755 6.734027,4.2985528 6.785037,4.1953843 C 6.9798451,3.8013878 7.5298786,3.7957588 7.7279849,4.1857344 7.7873802,4.302655 7.7955175,4.382716 7.7955175,4.850173 V 5.2803982 H 7.2606212 6.725725 Z"
     id="path16" />
  <path
     style="fill:#ffffff;stroke-width:0.0135221"
     d="m 6.7137457,6.9055101 c 0,-0.6068793 0.00321,-0.6362397 0.083278,-0.7623613 0.055964,-0.08815 0.1343254,-0.1551965 0.2395852,-0.2049903 0.079701,-0.037703 0.1029614,-0.042368 0.2112616,-0.042368 0.1083002,0 0.1315602,0.00466 0.2112616,0.042368 0.1052598,0.049794 0.1836218,0.1168406 0.2395853,0.2049903 0.080071,0.1261216 0.083278,0.155482 0.083278,0.7623613 V 7.4574638 H 7.2478705 6.7137457 Z"
     id="path17" />
  <path
     style="fill:#ffffff;stroke-width:0.0135221"
     d="m 6.7027766,8.9009529 0.00421,-0.4496113 0.043068,-0.090914 C 6.807434,8.2392981 6.8985586,8.144141 7.0094929,8.0895062 c 0.083269,-0.04101 0.098147,-0.043829 0.2312964,-0.043829 0.131531,0 0.1489559,0.00319 0.2301966,0.042186 0.1106415,0.053104 0.2054883,0.1482596 0.2612114,0.2620625 l 0.043037,0.087894 0.0042,0.4563725 0.0042,0.4563724 h -0.542531 -0.542531 z"
     id="path18" />
  <path
     style="fill:#ffffff;stroke-width:0.0135221"
     d="M 8.2985572,8.8739086 C 8.3025861,8.4121393 8.3026966,8.410576 8.3360807,8.3431644 8.478401,8.0557811 8.8566941,7.9979914 9.0741046,8.2304207 9.194174,8.3587847 9.1944931,8.3604446 9.1991084,8.8806697 l 0.00405,0.4563725 H 8.7488369 8.2945165 Z"
     id="path19" />
  <path
     style="fill:#ffffff;stroke-width:0.0135221"
     d="m 8.2985643,6.8591088 c 0.004,-0.5938027 0.00427,-0.5988319 0.035224,-0.6610453 0.047892,-0.09626 0.113894,-0.164583 0.2078001,-0.215108 0.077894,-0.04191 0.095817,-0.046052 0.2004795,-0.046336 0.1006059,-2.729e-4 0.1247019,0.00463 0.193238,0.039294 0.09144,0.046252 0.1757644,0.1323656 0.2170119,0.2216158 0.028343,0.061328 0.029337,0.081178 0.033132,0.6615801 l 0.00391,0.598355 H 8.7419457 8.2945306 Z"
     id="path20" />
  <path
     style="fill:#ffffff;stroke-width:0.0135221"
     d="M 10.302336,7.2171824 9.976264,7.1695081 9.9551748,7.1005121 C 9.9132706,6.9634176 9.8993913,6.8663486 9.8988066,6.7062834 9.8982175,6.5450387 9.8987396,6.5422519 9.9482015,6.4426015 10.048057,6.2414244 10.181749,6.1579161 10.337029,6.1997285 c 0.08326,0.02242 0.205062,0.1416395 0.261266,0.2557289 l 0.04363,0.088574 0.0042,0.3620613 c 0.0023,0.1991337 -7.39e-4,0.3613194 -0.0068,0.3604127 -0.006,-9.066e-4 -0.15768,-0.023102 -0.337019,-0.049323 z"
     id="path21" />
  <path
     style="fill:#ffffff;stroke-width:0.0135221"
     d="m 9.7455647,8.9212362 c 0.0052,-0.3446579 0.00811,-0.3822141 0.03571,-0.4608173 0.05693,-0.162144 0.1420488,-0.257145 0.2561373,-0.2858727 0.133638,-0.033651 0.268025,0.042494 0.351541,0.1991853 0.07514,0.1409866 0.08395,0.2018988 0.08395,0.5807705 v 0.3419737 h -0.3665 -0.366501 z"
     id="path22" />
  <path
     style="fill:#ffffff;stroke-width:0.0135221"
     d="m 11.212241,9.1446387 -0.06523,-0.1106059 0.0044,-0.2575402 c 0.0042,-0.2451586 0.0061,-0.2611846 0.03993,-0.3333428 0.01955,-0.041691 0.06262,-0.1040623 0.09572,-0.138602 0.0549,-0.057299 0.06575,-0.0628 0.123815,-0.0628 0.07952,0 0.116622,0.023916 0.176094,0.1135149 0.09271,0.1396776 0.102953,0.1962658 0.102953,0.5689269 V 9.2559093 L 11.483683,9.255577 11.27747,9.2552446 Z"
     id="path23" />
  <path
     style="fill:#ffffff;stroke-width:0.0135221"
     d="m 11.395789,7.6490093 -0.260301,-0.035124 1.02e-4,-0.3587952 c 5.6e-5,-0.1973373 0.0064,-0.3974676 0.01405,-0.4447339 0.01786,-0.1100756 0.07692,-0.2267497 0.146673,-0.2897688 0.0954,-0.086193 0.163539,-0.083481 0.253185,0.010079 0.03062,0.03196 0.07206,0.091588 0.09208,0.1325066 0.06954,0.142126 0.07503,0.1875873 0.07521,0.6218836 l 1.61e-4,0.4022839 -0.03042,-0.0016 c -0.01673,-8.818e-4 -0.14756,-0.017409 -0.290726,-0.036728 z"
     id="path24" />
</svg>
